<svg id="visual" viewBox="0 0 900 600" width="900" height="600" xmlns="http://www.w3.org/2000/svg" xmlns:xlink="http://www.w3.org/1999/xlink" version="1.1"><path d="M0 127L82 109L164 139L245 175L327 163L409 55L491 115L573 151L655 121L736 121L818 103L900 139L900 0L818 0L736 0L655 0L573 0L491 0L409 0L327 0L245 0L164 0L82 0L0 0Z" fill="#101015"></path><path d="M0 235L82 205L164 349L245 409L327 271L409 163L491 295L573 319L655 367L736 253L818 325L900 349L900 137L818 101L736 119L655 119L573 149L491 113L409 53L327 161L245 173L164 137L82 107L0 125Z" fill="#0d0d14"></path><path d="M0 475L82 427L164 493L245 487L327 463L409 391L491 421L573 433L655 457L736 457L818 421L900 511L900 347L818 323L736 251L655 365L573 317L491 293L409 161L327 269L245 407L164 347L82 203L0 233Z" fill="#090913"></path><path d="M0 541L82 487L164 535L245 547L327 559L409 493L491 505L573 499L655 499L736 505L818 505L900 553L900 509L818 419L736 455L655 455L573 431L491 419L409 389L327 461L245 485L164 491L82 425L0 473Z" fill="#050512"></path><path d="M0 601L82 601L164 601L245 601L327 601L409 601L491 601L573 601L655 601L736 601L818 601L900 601L900 551L818 503L736 503L655 497L573 497L491 503L409 491L327 557L245 545L164 533L82 485L0 539Z" fill="#000010"></path></svg>