<svg id="visual" viewBox="0 0 960 540" width="960" height="540" xmlns="http://www.w3.org/2000/svg" xmlns:xlink="http://www.w3.org/1999/xlink" version="1.1"><rect x="0" y="0" width="960" height="540" fill="#202020" fill-opacity=""></rect><path d="M0 380L20 390.3C40 400.7 80 421.3 120 416C160 410.7 200 379.3 240 365C280 350.7 320 353.3 360 362.5C400 371.7 440 387.3 480 407C520 426.7 560 450.3 600 444.5C640 438.7 680 403.3 720 384.7C760 366 800 364 840 371.3C880 378.7 920 395.3 940 403.7L960 412L960 541L940 541C920 541 880 541 840 541C800 541 760 541 720 541C680 541 640 541 600 541C560 541 520 541 480 541C440 541 400 541 360 541C320 541 280 541 240 541C200 541 160 541 120 541C80 541 40 541 20 541L0 541Z" fill="#000010" stroke-linecap="round" stroke-linejoin="miter"></path></svg>