<svg id="visual" viewBox="0 0 960 540" width="960" height="540" xmlns="http://www.w3.org/2000/svg" xmlns:xlink="http://www.w3.org/1999/xlink" version="1.1"><rect x="0" y="0" width="960" height="540" fill="#000010"></rect><defs><linearGradient id="grad1_0" x1="43.8%" y1="100%" x2="100%" y2="0%"><stop offset="14.444444444444446%" stop-color="#001220" stop-opacity="1"></stop><stop offset="85.55555555555554%" stop-color="#001220" stop-opacity="1"></stop></linearGradient></defs><defs><linearGradient id="grad2_0" x1="0%" y1="100%" x2="56.3%" y2="0%"><stop offset="14.444444444444446%" stop-color="#001220" stop-opacity="1"></stop><stop offset="85.55555555555554%" stop-color="#001220" stop-opacity="1"></stop></linearGradient></defs><g transform="translate(960, 540)"><path d="M-351 0C-345.4 -44.1 -339.8 -88.1 -324.3 -134.3C-308.8 -180.5 -283.3 -228.8 -242.5 -242.5C-201.7 -256.2 -145.5 -235.3 -102.6 -247.6C-59.6 -259.9 -29.8 -305.5 0 -351L0 0Z" fill="#101015"></path></g><g transform="translate(0, 0)"><path d="M351 0C351.4 50.1 351.9 100.1 324.3 134.3C296.7 168.5 241.1 186.9 200.1 200.1C159.1 213.3 132.7 221.5 101.8 245.8C70.9 270 35.4 310.5 0 351L0 0Z" fill="#101015"></path></g></svg>