<svg id="visual" viewBox="0 0 960 540" width="960" height="540" xmlns="http://www.w3.org/2000/svg" xmlns:xlink="http://www.w3.org/1999/xlink" version="1.1"><rect x="0" y="0" width="960" height="540" fill="#000010"></rect><defs><linearGradient id="grad1_0" x1="43.8%" y1="0%" x2="100%" y2="100%"><stop offset="14.444444444444446%" stop-color="#001220" stop-opacity="1"></stop><stop offset="85.55555555555554%" stop-color="#001220" stop-opacity="1"></stop></linearGradient></defs><defs><linearGradient id="grad2_0" x1="0%" y1="0%" x2="56.3%" y2="100%"><stop offset="14.444444444444446%" stop-color="#001220" stop-opacity="1"></stop><stop offset="85.55555555555554%" stop-color="#001220" stop-opacity="1"></stop></linearGradient></defs><g transform="translate(960, 0)"><path d="M0 351C-36.5 319.1 -73 287.3 -111.7 269.8C-150.4 252.2 -191.3 249 -229.8 229.8C-268.3 210.6 -304.5 175.3 -324.3 134.3C-344.1 93.3 -347.5 46.7 -351 0L0 0Z" fill="#000010"></path></g><g transform="translate(0, 540)"><path d="M0 -351C31.5 -306.9 63 -262.8 102.2 -246.7C141.4 -230.6 188.2 -242.6 229.1 -229.1C270 -215.6 305 -176.7 324.3 -134.3C343.6 -91.9 347.3 -45.9 351 0L0 0Z" fill="#101015"></path></g></svg>