<svg id="visual" viewBox="0 0 960 540" width="960" height="540" xmlns="http://www.w3.org/2000/svg" xmlns:xlink="http://www.w3.org/1999/xlink" version="1.1"><rect x="0" y="0" width="960" height="540" fill="#101015"></rect><path d="M0 343L13.3 363.5C26.7 384 53.3 425 80 437.2C106.7 449.3 133.3 432.7 160 408.3C186.7 384 213.3 352 240 345.7C266.7 339.3 293.3 358.7 320 361.8C346.7 365 373.3 352 400 339.2C426.7 326.3 453.3 313.7 480 327.2C506.7 340.7 533.3 380.3 560 410.3C586.7 440.3 613.3 460.7 640 471.5C666.7 482.3 693.3 483.7 720 468.2C746.7 452.7 773.3 420.3 800 420.8C826.7 421.3 853.3 454.7 880 469C906.7 483.3 933.3 478.7 946.7 476.3L960 474L960 541L946.7 541C933.3 541 906.7 541 880 541C853.3 541 826.7 541 800 541C773.3 541 746.7 541 720 541C693.3 541 666.7 541 640 541C613.3 541 586.7 541 560 541C533.3 541 506.7 541 480 541C453.3 541 426.7 541 400 541C373.3 541 346.7 541 320 541C293.3 541 266.7 541 240 541C213.3 541 186.7 541 160 541C133.3 541 106.7 541 80 541C53.3 541 26.7 541 13.3 541L0 541Z" fill="#000010" stroke-linecap="round" stroke-linejoin="miter"></path></svg>