<svg id="visual" viewBox="0 0 900 600" width="900" height="600" xmlns="http://www.w3.org/2000/svg" xmlns:xlink="http://www.w3.org/1999/xlink" version="1.1"><rect x="0" y="0" width="900" height="600" fill="#101010"></rect><defs><linearGradient id="grad1_0" x1="33.3%" y1="0%" x2="100%" y2="100%"><stop offset="20%" stop-color="#101010" stop-opacity="1"></stop><stop offset="80%" stop-color="#101010" stop-opacity="1"></stop></linearGradient></defs><defs><linearGradient id="grad2_0" x1="0%" y1="0%" x2="66.7%" y2="100%"><stop offset="20%" stop-color="#101010" stop-opacity="1"></stop><stop offset="80%" stop-color="#101010" stop-opacity="1"></stop></linearGradient></defs><g transform="translate(900, 0)"><path d="M0 297.5C-53 290.3 -106 283.1 -148.7 257.6C-191.4 232.2 -223.8 188.5 -246.8 142.5C-269.9 96.5 -283.7 48.3 -297.5 0L0 0Z" fill="#000010"></path></g><g transform="translate(0, 600)"><path d="M0 -297.5C47.5 -282.3 94.9 -267.1 141 -244.2C187.1 -221.3 231.8 -190.7 257.6 -148.7C283.5 -106.7 290.5 -53.4 297.5 0L0 0Z" fill="#000010"></path></g></svg>