<svg id="visual" viewBox="0 0 900 600" width="900" height="600" xmlns="http://www.w3.org/2000/svg" xmlns:xlink="http://www.w3.org/1999/xlink" version="1.1"><rect x="0" y="0" width="900" height="600" fill="#101010"></rect><defs><linearGradient id="grad1_0" x1="33.3%" y1="100%" x2="100%" y2="0%"><stop offset="20%" stop-color="#101010" stop-opacity="1"></stop><stop offset="80%" stop-color="#101010" stop-opacity="1"></stop></linearGradient></defs><defs><linearGradient id="grad2_0" x1="0%" y1="100%" x2="66.7%" y2="0%"><stop offset="20%" stop-color="#101010" stop-opacity="1"></stop><stop offset="80%" stop-color="#101010" stop-opacity="1"></stop></linearGradient></defs><g transform="translate(900, 600)"><path d="M-189.3 0C-187.6 -25.6 -185.8 -51.2 -174.9 -72.4C-163.9 -93.7 -143.7 -110.5 -124.5 -124.5C-105.2 -138.4 -86.8 -149.5 -66.2 -159.8C-45.6 -170.2 -22.8 -179.7 0 -189.3L0 0Z" fill="#000015"></path></g><g transform="translate(0, 0)"><path d="M189.3 0C188.5 26.4 187.8 52.7 174.9 72.4C162 92.2 137 105.3 116.7 116.7C96.3 128.1 80.7 137.8 62 149.7C43.3 161.5 21.7 175.4 0 189.3L0 0Z" fill="#000010"></path></g></svg>