<svg id="visual" viewBox="0 0 900 600" width="900" height="600" xmlns="http://www.w3.org/2000/svg" xmlns:xlink="http://www.w3.org/1999/xlink" version="1.1"><rect x="0" y="0" width="900" height="600" fill="#101015"></rect><path d="M0 421L18.8 434.2C37.7 447.3 75.3 473.7 112.8 499.2C150.3 524.7 187.7 549.3 225.2 550.3C262.7 551.3 300.3 528.7 337.8 516.7C375.3 504.7 412.7 503.3 450.2 502.2C487.7 501 525.3 500 562.8 508.3C600.3 516.7 637.7 534.3 675.2 540C712.7 545.7 750.3 539.3 787.8 541.7C825.3 544 862.7 555 881.3 560.5L900 566L900 601L881.3 601C862.7 601 825.3 601 787.8 601C750.3 601 712.7 601 675.2 601C637.7 601 600.3 601 562.8 601C525.3 601 487.7 601 450.2 601C412.7 601 375.3 601 337.8 601C300.3 601 262.7 601 225.2 601C187.7 601 150.3 601 112.8 601C75.3 601 37.7 601 18.8 601L0 601Z" fill="#000010" stroke-linecap="round" stroke-linejoin="miter"></path></svg>